<?xml version="1.0" encoding="utf-8"?>
<!-- Generator: Adobe Illustrator 22.0.0, SVG Export Plug-In . SVG Version: 6.00 Build 0)  -->
<svg version="1.1" id="Слой_1" xmlns="http://www.w3.org/2000/svg" xmlns:xlink="http://www.w3.org/1999/xlink" x="0px" y="0px"
	 viewBox="0 0 59 59" style="enable-background:new 0 0 59 59;" xml:space="preserve">
<style type="text/css">
	.st0{fill:#666D89;}
	.st1{fill:none;stroke:#666D89;stroke-width:2;}
</style>
<path id="bubble" class="st0" d="M30,21c-6,0-11,3.2-11,7c0,0.3,0.2,0.5,0.5,0.5S20,28.3,20,28c0-3.2,4.7-6,10-6
	c0.3,0,0.5-0.2,0.5-0.5S30.3,21,30,21z M30,16c-8.8,0-16,5.4-16,12c0,4.1,2.8,7.8,7,9.9c0,0,0,0,0,0.1c0,1.8-1.3,3.7-1.9,4.7l0,0
	c-0.2,0.5,0,1,0.5,1.2c0.1,0.1,0.2,0.1,0.4,0.1c0.1,0,0.2,0,0.3,0c3.1-0.5,6.1-3.4,6.8-4.2c1,0.2,2.1,0.2,3.1,0.2
	c8.8,0,16-5.4,16-12S38.8,16,30,16z M30,38c-0.9,0-1.9-0.1-2.8-0.2c-0.1,0-0.2,0-0.3,0c-0.6,0-1.2,0.3-1.5,0.7
	c-0.9,1-1.9,1.9-3.1,2.5c0.4-0.9,0.7-1.9,0.7-2.9c0-0.1,0-0.1,0-0.2c0-0.8-0.4-1.4-1.1-1.8C18.2,34.3,16,31.2,16,28
	c0-5.5,6.3-10,14-10s14,4.5,14,10S37.7,38,30,38z"/>
<circle id="Ellipse" class="st1" cx="29.5" cy="29.5" r="28.6"/>
</svg>
