<?xml version="1.0" encoding="utf-8"?>
<!-- Generator: Adobe Illustrator 22.0.0, SVG Export Plug-In . SVG Version: 6.00 Build 0)  -->
<svg version="1.1" id="Слой_1" xmlns="http://www.w3.org/2000/svg" xmlns:xlink="http://www.w3.org/1999/xlink" x="0px" y="0px"
	 viewBox="0 0 59 59" style="enable-background:new 0 0 59 59;" xml:space="preserve">
<style type="text/css">
	.st0{fill:#666D89;}
	.st1{fill:none;stroke:#666D89;stroke-width:2;}
</style>
<path id="bulb" class="st0" d="M30,13c-6.1,0-11,4.9-11,11c0,4,3.7,8.3,5,12.1c2,5.6,1.8,8.9,6,8.9c4.3,0,4-3.3,6-8.9
	c1.3-3.8,5-8.1,5-12.1C41,17.9,36.1,13,30,13z M32.6,40.2l-5,0.6c-0.2-0.5-0.4-1.1-0.6-1.9c0,0,0,0,0,0l6.2-0.8
	c-0.1,0.3-0.2,0.6-0.3,0.9C32.8,39.4,32.7,39.8,32.6,40.2z M26.7,37.9c-0.2-0.6-0.4-1.2-0.6-1.9h7.8c-0.1,0.4-0.2,0.7-0.4,1.1
	L26.7,37.9z M30,43c-0.9,0.2-1.8-0.4-2-1.3l4.2-0.5C31.6,42.9,31.2,43,30,43z M34.7,34h-9.3c-0.5-1.1-1.1-2.2-1.7-3.2
	C22.3,28.4,21,26,21,24c0-5,4-9,9-9s9,4,9,9c0,2-1.3,4.4-2.7,6.8C35.8,31.8,35.2,32.9,34.7,34z M30,18c-3.3,0-6,2.7-6,6
	c0,0.3,0.2,0.5,0.5,0.5S25,24.3,25,24c0-2.8,2.2-5,5-5c0.3,0,0.5-0.2,0.5-0.5S30.3,18,30,18z"/>
<circle id="Ellipse" class="st1" cx="29.5" cy="29.5" r="28.6"/>
</svg>
