<?xml version="1.0" encoding="utf-8"?>
<!-- Generator: Adobe Illustrator 22.0.0, SVG Export Plug-In . SVG Version: 6.00 Build 0)  -->
<svg version="1.1" id="Слой_1" xmlns="http://www.w3.org/2000/svg" xmlns:xlink="http://www.w3.org/1999/xlink" x="0px" y="0px"
	 viewBox="0 0 59 59" style="enable-background:new 0 0 59 59;" xml:space="preserve">
<style type="text/css">
	.st0{fill:none;stroke:#666D89;stroke-width:2;}
	.st1{fill:#666D89;}
</style>
<circle id="Ellipse" class="st0" cx="29.5" cy="29.5" r="28.5"/>
<path id="heart" class="st1" d="M43.2,18.8c-3.6-3.6-9.4-3.7-13.2-0.3c-3.8-3.4-9.6-3.3-13.2,0.3c-3.7,3.6-3.7,9.6-0.1,13.3
	c0,0,0.1,0.1,0.1,0.1l11.1,10.9c1.2,1.2,3.1,1.2,4.3,0l11.1-10.9c3.7-3.6,3.7-9.6,0.1-13.3C43.3,18.9,43.2,18.8,43.2,18.8z
	 M41.8,30.8L30.7,41.7c-0.4,0.4-1,0.4-1.4,0L18.2,30.8c-2.9-2.9-3-7.6-0.1-10.5c0,0,0,0,0.1-0.1c2.9-2.8,7.4-2.9,10.4-0.2l1.4,1.2
	l1.4-1.2c3-2.7,7.5-2.6,10.4,0.2C44.7,23.1,44.7,27.8,41.8,30.8C41.8,30.7,41.8,30.8,41.8,30.8z M23.3,21L23.3,21
	c-2.3,0-4.2,1.9-4.3,4.2c0,0,0,0,0,0l0,0c0,0.3,0.2,0.5,0.5,0.5s0.5-0.2,0.5-0.5l0,0c0-1.8,1.5-3.2,3.2-3.2l0,0
	c0.3,0,0.5-0.2,0.5-0.5S23.5,21,23.3,21z"/>
</svg>
