<?xml version="1.0" encoding="utf-8"?>
<!-- Generator: Adobe Illustrator 22.0.0, SVG Export Plug-In . SVG Version: 6.00 Build 0)  -->
<svg version="1.1" id="Слой_1" xmlns="http://www.w3.org/2000/svg" xmlns:xlink="http://www.w3.org/1999/xlink" x="0px" y="0px"
	 viewBox="0 0 59 59" style="enable-background:new 0 0 59 59;" xml:space="preserve">
<style type="text/css">
	.st0{fill:none;stroke:#666D89;stroke-width:2;}
	.st1{fill:#666D89;}
</style>
<circle id="Ellipse" class="st0" cx="29.5" cy="29.5" r="28.6"/>
<path id="pen" class="st1" d="M43.4,16.6c-1.6-1.6-3.7-2.5-6-2.6c-1.7,0-3.4,0.7-4.7,1.9l-4.9,4.9c0,0,0,0,0,0s0,0,0,0l0,0
	L17.5,31.3c-0.5,0.5-0.8,1.1-1,1.7l-2.3,8.5c-0.1,0.3-0.1,0.7-0.2,1c0,1.9,1.6,3.5,3.5,3.5c0.4,0,0.8-0.1,1.2-0.2l8.5-2.2
	c0.6-0.2,1.2-0.5,1.7-1l15.3-15.4C46.9,24.4,46.6,19.8,43.4,16.6z M30,37.8c-0.1-0.9-0.3-1.8-0.7-2.6l9.5-9.5c0.6,1.7,0.3,3.7-1,5
	c0,0,0,0,0,0l0,0L30,38.5C30,38.3,30,38,30,37.8z M28.8,34.3c-0.4-0.6-0.8-1.2-1.3-1.7c-0.6-0.6-1.3-1.1-2-1.5l9.5-9.5
	c1.5,0.6,2.7,1.8,3.4,3.2L28.8,34.3z M24.5,30.6c-0.9-0.4-1.9-0.6-2.9-0.6l7.7-7.8c1.2-1.1,3-1.5,4.6-1.1L24.5,30.6z M18.2,43.9
	c-0.2,0.1-0.4,0.1-0.7,0.1c-0.8,0-1.5-0.7-1.5-1.5c0-0.2,0.1-0.4,0.1-0.6l1.1-3.8c2.6,0,4.7,2.1,4.7,4.7c0,0,0,0,0,0L18.2,43.9z
	 M22.9,42.6c0-1.4-0.6-2.8-1.7-3.8c-1-1-2.3-1.6-3.8-1.7l1-3.6c0.1-0.3,0.2-0.5,0.4-0.7c2-1.4,5.1-1,7.2,1.1
	c2.3,2.3,2.6,5.6,0.9,7.6c-0.1,0.1-0.2,0.1-0.4,0.2L22.9,42.6z M42.7,25.8L41,27.5c0-0.2,0-0.4,0-0.7c-0.5-4.4-4.1-7.7-8.5-7.8
	l1.7-1.7c0.9-0.8,2-1.3,3.3-1.3c3.4,0.2,6.2,2.8,6.5,6.2C44.1,23.5,43.6,24.8,42.7,25.8z"/>
</svg>
