<?xml version="1.0" encoding="utf-8"?>
<!-- Generator: Adobe Illustrator 22.0.0, SVG Export Plug-In . SVG Version: 6.00 Build 0)  -->
<svg version="1.1" id="Слой_1" xmlns="http://www.w3.org/2000/svg" xmlns:xlink="http://www.w3.org/1999/xlink" x="0px" y="0px"
	 viewBox="0 0 59 59" style="enable-background:new 0 0 59 59;" xml:space="preserve">
<style type="text/css">
	.st0{fill:#666D89;}
	.st1{fill:none;stroke:#666D89;stroke-width:2;}
</style>
<path id="phone" class="st0" d="M38,14H22c-1.7,0-3,1.3-3,3v26c0,1.7,1.3,3,3,3h16c1.7,0,3-1.3,3-3V17C41,15.3,39.7,14,38,14z
	 M39,43c0,0.6-0.4,1-1,1H22c-0.6,0-1-0.4-1-1v-2h18V43z M39,40H21V20h18V40z M39,19H21v-2c0-0.6,0.4-1,1-1h16c0.6,0,1,0.4,1,1V19z
	 M32,17.5c0,0.3-0.2,0.5-0.5,0.5h-3c-0.3,0-0.5-0.2-0.5-0.5l0,0c0-0.3,0.2-0.5,0.5-0.5h3C31.8,17,32,17.2,32,17.5L32,17.5z M31,42.5
	c0,0.3-0.2,0.5-0.5,0.5h-1c-0.3,0-0.5-0.2-0.5-0.5l0,0c0-0.3,0.2-0.5,0.5-0.5h1C30.8,42,31,42.2,31,42.5L31,42.5z"/>
<circle id="Ellipse" class="st1" cx="29.5" cy="29.5" r="28.6"/>
</svg>
