<?xml version="1.0" encoding="utf-8"?>
<!-- Generator: Adobe Illustrator 22.0.0, SVG Export Plug-In . SVG Version: 6.00 Build 0)  -->
<svg version="1.1" id="Слой_1" xmlns="http://www.w3.org/2000/svg" xmlns:xlink="http://www.w3.org/1999/xlink" x="0px" y="0px"
	 viewBox="0 0 59 59" style="enable-background:new 0 0 59 59;" xml:space="preserve">
<style type="text/css">
	.st0{fill:#666D89;}
	.st1{fill:none;stroke:#666D89;stroke-width:2;}
</style>
<path id="star" class="st0" d="M45.9,25.6c-0.3-0.8-1-1.4-1.8-1.5l-8.3-1.2l-3.6-7.5c-0.6-1.2-2-1.6-3.1-1c-0.5,0.2-0.8,0.6-1,1
	l-3.6,7.5L16,24c-0.8,0.1-1.6,0.7-1.8,1.5c-0.3,0.8-0.1,1.7,0.5,2.3l6.1,6.1l-1.4,8.5c-0.1,0.9,0.2,1.7,0.9,2.2
	c0.7,0.5,1.7,0.5,2.4,0.1l7.3-3.9l7.3,3.9c0.8,0.4,1.7,0.4,2.4-0.1c0.7-0.5,1.1-1.3,0.9-2.2l-1.4-8.5l6.1-6.1
	C45.9,27.2,46.2,26.4,45.9,25.6z M37.6,32.4c-0.5,0.5-0.7,1.2-0.6,1.9l1.4,8.5l-7.3-3.9c-0.7-0.4-1.5-0.4-2.2,0l-7.3,3.9l1.4-8.4
	c0.1-0.7-0.1-1.4-0.6-1.9l-6.1-6.1l8.3-1.2c0.8-0.1,1.4-0.6,1.7-1.3l3.6-7.5l3.6,7.5c0.3,0.7,1,1.2,1.7,1.3l8.3,1.2L37.6,32.4z"/>
<circle id="Ellipse" class="st1" cx="29.5" cy="29.5" r="28.5"/>
</svg>
